<svg width="58" height="34" viewBox="0 0 58 34" fill="none" xmlns="http://www.w3.org/2000/svg">
<path d="M4.44481 17.8594C3.79313 17.4718 3.79313 16.5282 4.44481 16.1406L26.2388 3.17652C26.9053 2.78001 27.75 3.26036 27.75 4.03596V29.964C27.75 30.7396 26.9053 31.22 26.2388 30.8235L4.44481 17.8594Z" fill="#4A4949"/>
<path d="M26.4448 17.8594C25.7931 17.4718 25.7931 16.5282 26.4448 16.1406L48.2388 3.17652C48.9053 2.78001 49.75 3.26036 49.75 4.03596V29.964C49.75 30.7396 48.9053 31.22 48.2388 30.8235L26.4448 17.8594Z" fill="#4A4949"/>
<rect x="5" y="31" width="5" height="28" rx="1" transform="rotate(180 5 31)" fill="#4A4949"/>
</svg>
